<?xml version="1.0" standalone="no"?>
<!DOCTYPE svg PUBLIC "-//W3C//DTD SVG 20010904//EN"
 "http://www.w3.org/TR/2001/REC-SVG-20010904/DTD/svg10.dtd">
<svg version="1.0" xmlns="http://www.w3.org/2000/svg"
 width="96.000000pt" height="96.000000pt" viewBox="0 0 96.000000 96.000000"
 preserveAspectRatio="xMidYMid meet">
<metadata>
Created by potrace 1.11, written by Peter Selinger 2001-2013
</metadata>
<g transform="translate(0.000000,96.000000) scale(0.100000,-0.100000)"
fill="#000000" stroke="none">
<path d="M0 480 l0 -480 480 0 480 0 0 480 0 480 -480 0 -480 0 0 -480z m247
177 c41 -22 60 -67 43 -107 -7 -17 -21 -35 -30 -40 -17 -9 -15 -13 16 -44 55
-55 43 -125 -27 -161 -34 -18 -145 -31 -183 -21 l-26 6 0 190 0 189 28 4 c49
9 147 0 179 -16z m301 17 c21 -6 28 -27 17 -57 -5 -11 -13 -12 -44 -4 -51 14
-89 3 -97 -28 -8 -33 -2 -40 71 -75 44 -21 70 -40 80 -60 56 -108 -57 -198
-198 -159 -36 10 -38 13 -32 37 4 15 8 28 9 30 2 1 23 -3 48 -9 55 -15 95 -6
110 26 14 32 -1 51 -67 81 -85 37 -116 89 -90 150 25 60 110 90 193 68z m345
-3 c20 -8 24 -15 19 -36 -4 -25 -6 -26 -56 -20 -102 13 -159 -38 -160 -141 0
-91 56 -139 158 -132 49 3 51 2 54 -23 3 -22 -2 -27 -29 -33 -94 -19 -177 7
-225 69 -58 77 -39 232 34 282 60 40 149 55 205 34z"/>
<path d="M117 613 c-4 -3 -7 -26 -7 -50 0 -43 0 -43 36 -43 19 0 44 5 55 10
26 14 26 66 0 80 -22 11 -74 14 -84 3z"/>
<path d="M110 400 l0 -60 43 0 c50 0 77 22 77 63 0 34 -34 57 -82 57 l-38 0 0
-60z"/>
</g>
</svg>
